<svg width="27" height="27" viewBox="0 0 27 27" fill="none" xmlns="http://www.w3.org/2000/svg">
<path d="M0.75 11.25H26.25V15.75H0.75V11.25Z" fill="#99AAB5"/>
<path d="M13.5 9C6.45825 9 0.75 12.0217 0.75 15.75C0.75 16.545 1.023 17.3048 1.5 18.0128C2.1435 18.969 3.1695 19.8285 4.5 20.5305C6.80625 21.747 9.987 22.5 13.5 22.5C17.8575 22.5 21.7005 21.3413 24 19.575C24.624 19.0957 25.1243 18.57 25.5 18.0128C25.977 17.304 26.25 16.545 26.25 15.75C26.25 12.0217 20.5417 9 13.5 9Z" fill="#99AAB5"/>
<path d="M1.5 13.5127V18.0127C2.1435 18.9689 3.1695 19.8284 4.5 20.5304V16.0304C3.1695 15.3284 2.1435 14.4689 1.5 13.5127ZM25.5 18.0127V13.5127C25.1243 14.0707 24.624 14.5957 24 15.0749V19.5749C24.624 19.0964 25.1243 18.5707 25.5 18.0127Z" fill="#E1E8ED"/>
<path d="M13.5 18C20.5416 18 26.25 14.9779 26.25 11.25C26.25 7.52208 20.5416 4.5 13.5 4.5C6.45837 4.5 0.75 7.52208 0.75 11.25C0.75 14.9779 6.45837 18 13.5 18Z" fill="#CCD6DD"/>
<path d="M13.5002 16.5C19.7594 16.5 24.8335 13.9816 24.8335 10.875C24.8335 7.7684 19.7594 5.25 13.5002 5.25C7.24106 5.25 2.16699 7.7684 2.16699 10.875C2.16699 13.9816 7.24106 16.5 13.5002 16.5Z" fill="#EA596E"/>
<path d="M13.5002 6.75C19.246 6.75 23.9807 8.874 24.721 11.625C24.787 11.379 24.8335 11.13 24.8335 10.875C24.8335 7.7685 19.7597 5.25 13.5002 5.25C7.24074 5.25 2.16699 7.7685 2.16699 10.875C2.16699 11.13 2.21274 11.379 2.27949 11.625C3.01974 8.874 7.75449 6.75 13.5002 6.75Z" fill="#99AAB5"/>
<path d="M8.625 10.5C9.24632 10.5 9.75 10.1642 9.75 9.75C9.75 9.33579 9.24632 9 8.625 9C8.00368 9 7.5 9.33579 7.5 9.75C7.5 10.1642 8.00368 10.5 8.625 10.5Z" fill="#F5F8FA"/>
<path d="M6.375 12C6.99632 12 7.5 11.6642 7.5 11.25C7.5 10.8358 6.99632 10.5 6.375 10.5C5.75368 10.5 5.25 10.8358 5.25 11.25C5.25 11.6642 5.75368 12 6.375 12Z" fill="#F5F8FA"/>
<path d="M11.625 11.25C12.2463 11.25 12.75 10.9142 12.75 10.5C12.75 10.0858 12.2463 9.75 11.625 9.75C11.0037 9.75 10.5 10.0858 10.5 10.5C10.5 10.9142 11.0037 11.25 11.625 11.25Z" fill="#F5F8FA"/>
<path d="M8.625 13.5C9.24632 13.5 9.75 13.1642 9.75 12.75C9.75 12.3358 9.24632 12 8.625 12C8.00368 12 7.5 12.3358 7.5 12.75C7.5 13.1642 8.00368 13.5 8.625 13.5Z" fill="#F5F8FA"/>
<path d="M16.125 14.25C16.7463 14.25 17.25 13.9142 17.25 13.5C17.25 13.0858 16.7463 12.75 16.125 12.75C15.5037 12.75 15 13.0858 15 13.5C15 13.9142 15.5037 14.25 16.125 14.25Z" fill="#F5F8FA"/>
</svg>
