<svg width="19" height="17" viewBox="0 0 19 17" fill="none" xmlns="http://www.w3.org/2000/svg">
<path d="M5.83447 0.013917C6.91173 -0.143357 8.05289 1.05007 8.38155 2.69682C8.7102 4.33432 8.1168 5.79604 7.03954 5.96257C5.97141 6.12909 4.82112 4.93566 4.48333 3.28891C4.14555 1.65141 4.75721 0.189694 5.83447 0.013917ZM12.3619 0.013917C13.4483 0.189694 14.0508 1.65141 13.7313 3.28891C13.3844 4.93566 12.2432 6.12909 11.166 5.96257C10.0796 5.79604 9.48619 4.33432 9.82398 2.69682C10.1526 1.05007 11.2938 -0.143357 12.3619 0.013917ZM0.95029 4.26956C1.99103 3.81624 3.40607 4.63962 4.14555 6.07359C4.83938 7.53531 4.60201 9.07104 3.5704 9.52436C2.53879 9.97768 1.13288 9.16355 0.411661 7.71108C-0.309555 6.25861 -0.0539341 4.71363 0.95029 4.26956ZM17.383 4.26956C18.3873 4.71363 18.6429 6.25861 17.9217 7.71108C17.2005 9.16355 15.7945 9.97768 14.7629 9.52436C13.7313 9.07104 13.494 7.53531 14.1878 6.07359C14.9273 4.63962 16.3423 3.81624 17.383 4.26956ZM15.8585 14.2426C15.895 15.1122 15.2377 16.0744 14.4525 16.4352C12.8184 17.1938 10.883 15.621 9.06625 15.621C7.24951 15.621 5.29584 17.2585 3.68908 16.4352C2.77615 15.9818 2.14623 14.7792 2.26491 13.78C2.42924 12.4015 4.06338 11.6614 5.03109 10.653C6.31832 9.34858 7.23125 6.89696 9.06625 6.89696C10.8921 6.89696 11.8598 9.31158 13.0923 10.653C14.1056 11.7817 15.7945 12.7346 15.8585 14.2426Z" fill="#0085FF"/>
</svg>
